<svg xmlns="http://www.w3.org/2000/svg" xmlns:xlink="http://www.w3.org/1999/xlink" width="583" height="134" viewBox="0 0 583 134">
    <defs>
        <path id="a" d="M0 .43h53.545v92.082H0z"/>
        <path id="c" d="M.222.134h27.407v133.133H.222z"/>
        <path id="e" d="M0 133.523h582.647V.134H0z"/>
    </defs>
    <g fill="none" fill-rule="evenodd">
        <path fill="#FFF" d="M269.456 36.652v10.375h-1.652v-6.069h-1.424v6.07h-14.27v6.628h-8.942v80.039h57.954V53.656h-28.264v-6.629h-1.978V36.652z"/>
        <path fill="#FFF" d="M244.593.477l-27.408 16.855v116.277h27.408z"/>
        <path fill="#FFF" d="M175.74 133.697h42.87V23.203h-42.87z"/>
        <path fill="#48443E" d="M181.523 36.452h31.66V28.99h-31.66v7.463zm-1.424 1.43h34.51V27.559h-34.51v10.325zM181.523 49.56h31.66v-7.463h-31.66v7.462zm-1.424 1.43h34.51V40.666h-34.51V50.99zM181.523 62.668h31.66v-7.464h-31.66v7.464zm-1.424 1.43h34.51V53.773h-34.51v10.325zM181.523 75.775h31.66V68.31h-31.66v7.464zm-1.424 1.43h34.51V66.88h-34.51v10.325zM181.523 88.882h31.66v-7.463h-31.66v7.463zm-1.424 1.43h34.51V79.988h-34.51v10.324zM181.523 101.99h31.66v-7.463h-31.66v7.463zm-1.424 1.43h34.51V93.096h-34.51v10.324zM181.523 115.097h31.66v-7.463h-31.66v7.463zm-1.424 1.43h34.51v-10.324h-34.51v10.325zM181.523 128.204h31.66v-7.462h-31.66v7.462zm-1.424 1.43h34.51v-10.323h-34.51v10.323z"/>
        <g>
            <path fill="#50E3B3" d="M383.473 92.867c0 5.146-4.24 9.332-9.452 9.332l-2.308.004c-1.42.002-3.182.004-4.955.004-3.734 0-6.164-.011-7.428-.039-5.432-.116-9.776-3.995-9.684-8.645.07-3.272 2.372-6.23 5.868-7.538l.704-.262-.299-.693a6.048 6.048 0 0 1-.502-2.41c0-2.362 1.377-4.516 3.509-5.484l.447-.205-.03-.492a8.5 8.5 0 0 1-.018-.54c0-2.266 5.169-3.786 9.997-3.786 3.835 0 6.787.937 7.018 2.23l.105.588.712-.002c3.727 0 6.759 3.073 6.759 6.848a6.833 6.833 0 0 1-2.021 4.884l-.427.424.344.494a9.21 9.21 0 0 1 1.661 5.288M121.287 97.502v-5.97l5.146-10.092a.716.716 0 0 0-.31-.962.71.71 0 0 0-.958.31l-3.878 7.605V71.885a.713.713 0 0 0-1.424 0v16.807l-4.03-7.904a.71.71 0 0 0-.959-.31.716.716 0 0 0-.309.962l5.297 10.39v5.792c-5.524-.046-9.527-6.228-9.527-14.735 0-7.438 7.79-17.2 9.89-19.695 2.197 2.471 10.438 12.247 10.438 19.695 0 7.492-4.097 13.693-9.376 14.615"/>
            <path fill="#FFF" d="M157.033 42.282h-16.316v90.988h36.079V42.282z"/>
            <g transform="translate(0 41.01)">
                <mask id="b" fill="#fff">
                    <use xlink:href="#a"/>
                </mask>
                <path fill="#FFF" d="M49.698 10.788V.429H3.103v10.359H0v81.725h53.545V10.788z" mask="url(#b)"/>
            </g>
            <path fill="#FFF" d="M62.178 18.07V3.118h-1.424V18.07h-8.426v115.284h38.393V18.07z"/>
            <g transform="translate(216.963)">
                <mask id="d" fill="#fff">
                    <use xlink:href="#c"/>
                </mask>
                <path fill="#48443E" d="M26.205 131.836H1.646V17.792L26.205 2.687v129.15zM.222 16.99v116.278h27.407V.134L.222 16.99z" mask="url(#d)"/>
            </g>
            <mask id="f" fill="#fff">
                <use xlink:href="#e"/>
            </mask>
            <path fill="#48443E" d="M223.465 78.756h1.424V23.578h-1.424zM230.177 100.707h1.424V17.455h-1.424zM236.888 118.7h1.425V12.418h-1.425zM177.165 131.924h40.02V24.29h-40.02v107.633zm-1.424 1.43h42.869V22.861h-42.87v110.493z" mask="url(#f)"/>
            <path fill="#48443E" d="M181.523 36.11h31.66v-7.464h-31.66v7.464zm-1.424 1.43h34.51V27.217h-34.51V37.54zM181.523 49.217h31.66v-7.462h-31.66v7.462zm-1.424 1.43h34.51V40.325h-34.51v10.324zM181.523 62.325h31.66v-7.464h-31.66v7.464zm-1.424 1.43h34.51V53.43h-34.51v10.325zM181.523 75.432h31.66V67.97h-31.66v7.463zm-1.424 1.431h34.51V66.538h-34.51v10.325zM181.523 88.54h31.66v-7.464h-31.66v7.463zm-1.424 1.43h34.51V79.646h-34.51V89.97zM181.523 101.648h31.66v-7.464h-31.66v7.464zm-1.424 1.43h34.51V92.753h-34.51v10.325zM181.523 114.755h31.66v-7.463h-31.66v7.463zm-1.424 1.43h34.51v-10.324h-34.51v10.324zM181.523 127.861h31.66V120.4h-31.66v7.462zm-1.424 1.43h34.51V118.97h-34.51v10.323zM53.752 22.674h35.544V19.5H53.752v3.173zm35.544 109.25h-9.594v-9.07H63.346v9.07h-9.594V24.104h35.544v107.82zm-24.526-.05h13.508v-7.59H64.77v7.59zM62.178 18.07V3.117h-1.424V18.07h-8.426v115.284h38.393V18.07H62.178z" mask="url(#f)"/>
            <path fill="#48443E" d="M61.466 33.259H82.36v-1.43H61.466zM61.466 43.602H82.36V42.17H61.466zM61.466 53.944H82.36v-1.43H61.466zM61.466 64.286H82.36v-1.43H61.466zM61.466 74.628H82.36v-1.43H61.466zM61.466 84.97H82.36v-1.43H61.466zM61.466 95.313H82.36v-1.43H61.466zM61.466 105.656H82.36v-1.43H61.466zM61.466 115.999H82.36v-1.43H61.466zM52.12 131.914h-8.005v-11.097a.714.714 0 0 0-.712-.715H29.006a.713.713 0 0 0-.712.715v11.097h-2.546v-11.097a.713.713 0 0 0-.713-.715H10.64a.713.713 0 0 0-.712.715v11.097H1.424V53.05h50.697v78.864zm-22.402 0h12.973v-10.382H29.718v10.382zm-18.365 0h12.97v-10.382h-12.97v10.382zM4.527 51.62h43.747v-8.928H4.527v8.928zm45.17 0V41.262H3.104V51.62H0v81.725h53.545V51.62h-3.847z" mask="url(#f)"/>
            <path fill="#48443E" d="M42.393 46.034H11.029a.714.714 0 0 0-.712.716c0 .394.319.715.712.715h31.364c.393 0 .712-.32.712-.715a.713.713 0 0 0-.712-.716M6.761 64.202h9.248v-6.154H6.761v6.154zm-1.424 1.43h12.097v-9.015H5.337v9.016zM22.397 64.202h9.247v-6.154h-9.247v6.154zm-1.425 1.43H33.07v-9.015H20.972v9.016zM38.031 64.202h9.248v-6.154H38.03v6.154zm-1.424 1.43h12.096v-9.015H36.607v9.016zM6.761 74.632h9.248v-6.155H6.761v6.155zm-1.424 1.43h12.097v-9.015H5.337v9.015zM22.397 74.632h9.247v-6.155h-9.247v6.155zm-1.425 1.43H33.07v-9.015H20.972v9.015zM38.031 74.632h9.248v-6.155H38.03v6.155zm-1.424 1.43h12.096v-9.015H36.607v9.015zM6.761 85.062h9.248v-6.154H6.761v6.154zm-1.424 1.43h12.097v-9.015H5.337v9.015zM22.397 85.062h9.247v-6.154h-9.247v6.154zm-1.425 1.43H33.07v-9.015H20.972v9.015zM38.031 85.062h9.248v-6.154H38.03v6.154zm-1.424 1.43h12.096v-9.015H36.607v9.015zM6.761 95.492h9.248v-6.154H6.761v6.154zm-1.424 1.43h12.097v-9.015H5.337v9.016zM22.397 95.492h9.247v-6.154h-9.247v6.154zm-1.425 1.43H33.07v-9.015H20.972v9.016zM38.031 95.492h9.248v-6.154H38.03v6.154zm-1.424 1.43h12.096v-9.015H36.607v9.016zM6.761 105.922h9.248v-6.154H6.761v6.154zm-1.424 1.43h12.097v-9.015H5.337v9.016zM22.397 105.922h9.247v-6.154h-9.247v6.154zm-1.425 1.43H33.07v-9.015H20.972v9.016zM38.031 105.922h9.248v-6.154H38.03v6.154zm-1.424 1.43h12.096v-9.015H36.607v9.016zM6.761 116.353h9.248v-6.156H6.761v6.156zm-1.424 1.43h12.097v-9.016H5.337v9.017zM22.397 116.353h9.247v-6.156h-9.247v6.156zm-1.425 1.43H33.07v-9.016H20.972v9.017zM38.031 116.353h9.248v-6.156H38.03v6.156zm-1.424 1.43h12.096v-9.016H36.607v9.017zM175.372 131.839h-2.534v-7.199h-12.964v7.199h-2.84V43.712h18.338v88.127zm-14.073 0h4.345v-5.768h-4.345v5.768zm5.77 0h4.345v-5.768h-4.346v5.768zm-19.023 0h7.563V43.712h-7.563v88.127zm-5.904 0h4.48V43.712h-4.48v88.127zm34.654-89.558h-36.079v90.988h36.079V42.281z" mask="url(#f)"/>
            <path fill="#48443E" d="M162.421 51.908h7.871v-5.24h-7.871v5.24zm-1.424 1.43h10.72v-8.1h-10.72v8.1zM162.421 63.25h7.871v-5.242h-7.871v5.241zm-1.424 1.43h10.72v-8.103h-10.72v8.103zM162.421 74.59h7.871V69.35h-7.871v5.241zm-1.424 1.43h10.72v-8.102h-10.72v8.103zM162.421 85.93h7.871v-5.24h-7.871v5.24zm-1.424 1.43h10.72v-8.1h-10.72v8.1zM162.421 97.272h7.871v-5.241h-7.871v5.241zm-1.424 1.43h10.72V90.6h-10.72v8.103zM162.421 108.612h7.871v-5.24h-7.871v5.24zm-1.424 1.431h10.72v-8.101h-10.72v8.101zM162.421 119.953h7.871v-5.24h-7.871v5.24zm-1.424 1.431h10.72v-8.102h-10.72v8.102zM244.592 59.927h55.105v-5.183h-55.105v5.183zm0 71.995h55.106V61.477h-55.105v70.445zm-1.424-78.608v80.039h57.954V53.314h-57.954z" mask="url(#f)"/>
            <path fill="#48443E" d="M272.858 132.313h19.74V121.47h-19.74v10.842zm-21.315 0h19.89V121.47h-19.89v10.842zm-1.425.954h43.904V120.04h-43.904v13.227zM249.866 72.44h.831v-6.145h-.83v6.146zm2.255 0h6.45v-6.145h-6.45v6.146zm-3.679 1.431h11.554v-9.007h-11.554v9.007zM267.572 72.44h.832v-6.145h-.832v6.146zm2.256 0h6.45v-6.145h-6.45v6.146zm-3.68 1.431h11.554v-9.007h-11.554v9.007zM287.534 72.44h6.449v-6.145h-6.45v6.146zm-2.256 0h.832v-6.145h-.832v6.146zm-1.424 1.431h11.553v-9.007h-11.553v9.007zM249.866 86.628h.831v-6.146h-.83v6.146zm2.255 0h6.45v-6.146h-6.45v6.146zm-3.679 1.43h11.554v-9.007h-11.554v9.008zM267.572 86.628h.832v-6.146h-.832v6.146zm2.256 0h6.45v-6.146h-6.45v6.146zm-3.68 1.43h11.554v-9.007h-11.554v9.008zM285.278 86.628h.832v-6.146h-.832v6.146zm2.256 0h6.449v-6.146h-6.45v6.146zm-3.68 1.43h11.553v-9.007h-11.553v9.008zM249.866 100.816h.831V94.67h-.83v6.147zm2.255 0h6.45V94.67h-6.45v6.147zm-3.679 1.43h11.554v-9.008h-11.554v9.008zM267.572 100.816h.832V94.67h-.832v6.147zm2.256 0h6.45V94.67h-6.45v6.147zm-3.68 1.43h11.554v-9.008h-11.554v9.008zM285.278 100.816h.832V94.67h-.832v6.147zm2.256 0h6.449V94.67h-6.45v6.147zm-3.68 1.43h11.553v-9.008h-11.553v9.008zM249.866 115.003h.831v-6.146h-.83v6.146zm2.255 0h6.45v-6.146h-6.45v6.146zm-3.679 1.43h11.554v-9.007h-11.554v9.008zM267.572 115.003h.832v-6.146h-.832v6.146zm2.256 0h6.45v-6.146h-6.45v6.146zm-3.68 1.43h11.554v-9.007h-11.554v9.008zM285.278 115.003h.832v-6.146h-.832v6.146zm2.256 0h6.449v-6.146h-6.45v6.146zm-3.68 1.43h11.553v-9.007h-11.553v9.008zM253.534 53.289h17.9v-5.173h-17.9v5.173zm17.346-6.603V36.31h-1.424v10.376h-1.652v-6.07h-1.424v6.07H252.11v8.033h20.75v-8.033h-1.98zM383.473 92.867c0 5.146-4.24 9.332-9.452 9.332l-2.308.004c-1.42.002-3.182.004-4.955.004-3.734 0-6.164-.011-7.428-.039-5.432-.116-9.776-3.995-9.684-8.645.07-3.272 2.372-6.23 5.868-7.538l.704-.262-.299-.693a6.048 6.048 0 0 1-.502-2.41c0-2.362 1.377-4.516 3.509-5.484l.447-.205-.03-.492a8.5 8.5 0 0 1-.018-.54c0-2.266 5.169-3.786 9.997-3.786 3.835 0 6.787.937 7.018 2.23l.105.588.712-.002c3.727 0 6.759 3.073 6.759 6.848a6.833 6.833 0 0 1-2.021 4.884l-.427.424.344.494a9.21 9.21 0 0 1 1.661 5.288m1.867-11.09c0-4.426-3.451-8.052-7.775-8.268-1.154-2.612-6.53-2.826-8.243-2.826-5.675 0-11.421 1.791-11.421 5.215l.001.15a7.468 7.468 0 0 0-3.547 8.867c-3.673 1.631-6.056 4.931-6.133 8.578-.108 5.44 4.861 9.972 11.078 10.106 1.226.025 3.535.039 7.043.039v28.89c0 .395.32.716.712.716.393 0 .712-.32.712-.715v-28.891c1.424 0 2.798-.003 3.948-.005l2.306-.003c5.998 0 10.877-4.828 10.877-10.763 0-1.999-.55-3.929-1.597-5.62a8.26 8.26 0 0 0 2.04-5.47M343.836 80.749c-2.494 0-4.522-2.037-4.522-4.542 0-.4.057-.786.154-1.156h8.737c.097.37.154.756.154 1.156 0 2.505-2.03 4.542-4.523 4.542m0-9.085c1.537 0 2.895.776 3.713 1.957h-7.425a4.512 4.512 0 0 1 3.712-1.957m-24.676 1.957h-7.425a4.514 4.514 0 0 1 3.713-1.957c1.536 0 2.894.776 3.712 1.957m-3.712 7.128c-2.494 0-4.523-2.037-4.523-4.542 0-.4.057-.786.154-1.156h8.736c.097.37.154.756.154 1.156 0 2.505-2.028 4.542-4.521 4.542m16.21 36.987v13.97a.337.337 0 0 1-.085.01h-3.861a.32.32 0 0 1-.086-.01v-13.97a.342.342 0 0 1 .086-.01h3.86c.035 0 .063.005.085.01m12.869-47.458v-2a.714.714 0 0 0-.712-.716.695.695 0 0 0-.298.068h-6.09a.707.707 0 0 0-.518.227c-.005.006-.013.006-.018.012l-7.247 6.785-7.25-6.785c-.004-.006-.01-.006-.016-.01a.704.704 0 0 0-.519-.23h-6.09a.693.693 0 0 0-.298-.067.714.714 0 0 0-.712.716v2a5.97 5.97 0 0 0-5.257 5.929c0 3.293 2.668 5.972 5.947 5.972 3.278 0 5.946-2.679 5.946-5.972a5.968 5.968 0 0 0-5.212-5.922V69.06h5.395l7.353 6.883v40.352h-1.218c-.847 0-1.51.574-1.51 1.306v14.241c0 .732.663 1.306 1.51 1.306h3.86c.847 0 1.51-.574 1.51-1.306v-14.241c0-.732-.663-1.306-1.51-1.306h-1.218v-40.35l7.352-6.885h5.395v1.225a5.968 5.968 0 0 0-5.211 5.922c0 3.293 2.667 5.972 5.946 5.972s5.947-2.679 5.947-5.972a5.97 5.97 0 0 0-5.257-5.93" mask="url(#f)"/>
            <path fill="#50E3B3" d="M397.166 110.704l3.418-2.67-4.662-8.188 2.487-2.674-9.327-12.738-9.323 12.738 2.487 2.674-4.662 8.189 3.421 2.669-5.594 9.792h27.347z" mask="url(#f)"/>
            <path fill="#48443E" d="M381.93 110.52l-3.42-2.67 4.616-8.107-2.443-2.625 8.4-11.476 8.402 11.476-2.442 2.625 4.616 8.107-3.418 2.67 5.288 9.261H376.64l5.29-9.261zm22.058 10.692l-5.896-10.325 3.417-2.668-4.708-8.27 2.532-2.723-10.25-13.999-10.248 14 2.532 2.722-4.708 8.27 3.42 2.668-5.898 10.325h14.189v10.382c0 .396.319.716.712.716.394 0 .712-.32.712-.716v-10.382h14.194zM121.287 97.502v-5.97l5.146-10.092a.716.716 0 0 0-.31-.962.71.71 0 0 0-.958.31l-3.878 7.605V71.885a.713.713 0 0 0-1.424 0v16.807l-4.03-7.904a.71.71 0 0 0-.959-.31.716.716 0 0 0-.309.962l5.297 10.39v5.792c-5.524-.046-9.527-6.228-9.527-14.735 0-7.438 7.79-17.2 9.89-19.695 2.197 2.471 10.438 12.247 10.438 19.695 0 7.492-4.097 13.693-9.376 14.615m10.8-14.615c0-9.113-10.895-20.774-11.359-21.265a.697.697 0 0 0-.527-.224.715.715 0 0 0-.52.238c-.44.491-10.77 12.149-10.77 21.25 0 9.339 4.602 16.122 10.951 16.167v33.113c0 .394.319.715.713.715.393 0 .712-.32.712-.715V98.95c6.067-.903 10.8-7.761 10.8-16.064" mask="url(#f)"/>
            <path fill="#50E3B3" d="M117.849 88.177c0 9.174-7.035 16.616-15.711 16.616-8.675 0-15.708-7.442-15.708-16.616 0-9.175 7.033-16.616 15.708-16.616 8.676 0 15.71 7.44 15.71 16.616" mask="url(#f)"/>
            <path fill="#48443E" d="M102.601 104.065v-4.05l6.348-8.782a.718.718 0 0 0-.158-.999.71.71 0 0 0-.995.158l-5.195 7.186V85.805a.714.714 0 0 0-.712-.715.714.714 0 0 0-.712.715v11.773l-5.195-7.186a.71.71 0 0 0-.995-.158.718.718 0 0 0-.159 1l6.349 8.78v4.027c-7.823-.528-14.035-7.439-14.035-15.863 0-8.768 6.727-15.901 14.996-15.901 8.27 0 14.999 7.133 14.999 15.9 0 8.602-6.48 15.626-14.536 15.888m15.96-15.887c0-9.557-7.367-17.332-16.423-17.332-9.054 0-16.42 7.775-16.42 17.332 0 9.215 6.85 16.77 15.459 17.298v26.481c0 .394.318.715.712.715.393 0 .712-.32.712-.715v-26.462c8.842-.26 15.96-7.925 15.96-17.317" mask="url(#f)"/>
            <path fill="#C2F5E5" d="M126.747 132.252a8.373 8.373 0 0 1-2.528.387h-14.21c-4.274 0-7.74-3.17-7.74-7.08 0-3.909 3.466-7.078 7.74-7.078.842 0 1.65.124 2.408.35.664-3.291 3.817-5.784 7.608-5.784 3.946 0 7.202 2.702 7.679 6.192 1.78.823 3.167 2.254 3.83 3.995l-4.787 9.018z" mask="url(#f)"/>
            <path fill="#48443E" d="M124.22 133.354h-14.21c-4.66 0-8.452-3.497-8.452-7.795 0-4.297 3.791-7.794 8.452-7.794.64 0 1.274.067 1.895.199 1.028-3.305 4.323-5.633 8.12-5.633 4.108 0 7.613 2.736 8.321 6.427 1.806.931 3.166 2.418 3.853 4.221a.717.717 0 0 1-.412.924.711.711 0 0 1-.919-.414c-.586-1.541-1.849-2.854-3.462-3.6a.716.716 0 0 1-.408-.553c-.434-3.179-3.432-5.574-6.973-5.574-3.394 0-6.3 2.191-6.91 5.211a.709.709 0 0 1-.901.543 7.737 7.737 0 0 0-2.204-.32c-3.875 0-7.028 2.855-7.028 6.363 0 3.51 3.153 6.365 7.028 6.365h14.21c.792 0 1.57-.12 2.313-.354a.715.715 0 0 1 .427 1.364 9.067 9.067 0 0 1-2.74.42" mask="url(#f)"/>
            <path fill="#C2F5E5" d="M128.408 125.28a4.3 4.3 0 0 1 1.236.18c.34-1.69 1.959-2.97 3.905-2.97 2.025 0 3.696 1.387 3.941 3.178 1.295.599 2.185 1.828 2.185 3.245 0 2.006-1.779 3.635-3.974 3.635h-7.293c-2.195 0-3.973-1.629-3.973-3.635s1.778-3.633 3.973-3.633" mask="url(#f)"/>
            <path fill="#48443E" d="M128.408 125.995c-1.798 0-3.261 1.31-3.261 2.918 0 1.61 1.463 2.92 3.261 2.92h7.293c1.798 0 3.261-1.31 3.261-2.92 0-1.096-.678-2.09-1.77-2.595a.715.715 0 0 1-.407-.552c-.2-1.46-1.591-2.56-3.236-2.56-1.579 0-2.928 1.007-3.208 2.396a.707.707 0 0 1-.9.544c-.335-.1-.682-.15-1.033-.15m7.293 7.267h-7.293c-2.584 0-4.685-1.951-4.685-4.35 0-2.397 2.101-4.348 4.685-4.348.25 0 .499.019.744.055.666-1.685 2.408-2.845 4.397-2.845 2.213 0 4.111 1.443 4.576 3.415 1.404.785 2.262 2.182 2.262 3.723 0 2.399-2.102 4.35-4.686 4.35" mask="url(#f)"/>
            <path fill="#FFF" d="M394.522 128.868a8.16 8.16 0 0 1-.529.017c-1.087 0-1.929-.224-2.498-.666a2.091 2.091 0 0 1-.816-1.527c-.014-.416-.029-.792-.044-1.156-.14-3.652-.232-6.065 1.51-6.167.835-.049 1.264-1.996 1.642-3.716.567-2.57 1.207-5.481 3.584-6.267 1.836-.602 4.337-.963 6.69-.963 1.218 0 2.414.092 3.553.276 2.44.39 4.637 1.198 6.533 2.398 2.21 1.4 4.007 3.337 5.343 5.76.182.047.58.133 1.446.29 3.003.543 7.973 1.439 7.98 5.122 0 .056.003.318.009.658v.07c.03 2.005.038 2.714.028 2.86-.181 2.938-4.4 2.938-7.482 2.938h-.364l-26.585.073z" mask="url(#f)"/>
            <path fill="#48443E" d="M393.993 129.6c-1.249 0-2.236-.273-2.933-.815a2.824 2.824 0 0 1-1.091-2.036c-.016-.447-.03-.821-.045-1.183-.15-3.91-.258-6.738 2.14-6.908.397-.29.822-2.223 1.028-3.16.578-2.622 1.297-5.879 4.056-6.79 1.905-.627 4.49-1 6.913-1 1.26 0 2.493.095 3.666.284 2.535.407 4.823 1.248 6.8 2.5 2.226 1.411 4.05 3.34 5.429 5.738.22.048.567.116 1.107.214 3.202.578 8.557 1.544 8.565 5.824 0 .057.003.314.009.647v.072c.034 2.293.037 2.758.027 2.915-.223 3.609-5.02 3.609-8.194 3.609h-.364l.002-1.431h.363c3.494 0 6.642-.174 6.772-2.267.009-.156-.009-1.417-.03-2.806v-.07l-.01-.668c-.005-3.083-4.627-3.918-7.39-4.416a24.796 24.796 0 0 1-1.503-.304l-.295-.078-.148-.268c-1.277-2.315-2.993-4.165-5.1-5.5-1.813-1.149-3.92-1.922-6.265-2.299a21.736 21.736 0 0 0-3.44-.266c-2.283 0-4.7.347-6.47.928-1.988.657-2.583 3.355-3.108 5.736-.476 2.162-.924 4.2-2.297 4.281-.997.059-.971 1.999-.84 5.423.015.367.03.744.044 1.162.032.392.214.734.538.984.437.34 1.15.518 2.064.518.172 0 .335-.007.482-.017l.093 1.429c-.175.011-.369.019-.575.019" mask="url(#f)"/>
            <path fill="#FFF" d="M398.823 125.073c-2.046 0-3.71 1.672-3.71 3.727 0 2.055 1.664 3.729 3.71 3.729 2.047 0 3.71-1.674 3.71-3.729s-1.663-3.727-3.71-3.727" mask="url(#f)"/>
            <path fill="#48443E" d="M398.823 125.789a3.009 3.009 0 0 0-2.998 3.011 3.01 3.01 0 0 0 2.998 3.013 3.01 3.01 0 0 0 2.999-3.013 3.009 3.009 0 0 0-2.999-3.011m0 7.455c-2.439 0-4.423-1.994-4.423-4.444s1.984-4.442 4.423-4.442 4.423 1.993 4.423 4.442c0 2.45-1.984 4.444-4.423 4.444" mask="url(#f)"/>
            <path fill="#FFF" d="M417.5 125.073c-2.046 0-3.71 1.672-3.71 3.727 0 2.055 1.664 3.729 3.71 3.729 2.047 0 3.713-1.674 3.713-3.729a3.724 3.724 0 0 0-3.713-3.727" mask="url(#f)"/>
            <path fill="#48443E" d="M417.5 125.789a3.009 3.009 0 0 0-2.999 3.011 3.01 3.01 0 0 0 2.999 3.013c1.654 0 3-1.351 3-3.013a3.01 3.01 0 0 0-3-3.011m0 7.455c-2.439 0-4.423-1.994-4.423-4.444s1.984-4.442 4.423-4.442c2.44 0 4.425 1.993 4.425 4.442 0 2.45-1.985 4.444-4.425 4.444" mask="url(#f)"/>
            <path fill="#FFF" d="M414.115 128.779H402.93" mask="url(#f)"/>
            <path fill="#48443E" d="M406.404 118.051v-5.056l.073.003c2.231.123 4.33.692 5.91 1.6 1.62.932 2.618 2.18 2.811 3.52l.02.138-8.814-.205zm-8.884-.336c.164-1.578.785-2.685 1.955-3.484 1.239-.845 3.042-1.26 5.504-1.272v5.059l-7.472-.175.013-.128zm19.088.196c-.258-1.783-1.506-3.4-3.514-4.555-1.769-1.017-4.091-1.651-6.54-1.786a27.925 27.925 0 0 0-1.484-.043c-2.806 0-4.898.498-6.396 1.521-1.522 1.04-2.363 2.517-2.57 4.518l-.176 1.672 20.943.488-.263-1.815zM402.93 129.494h11.185v-1.43H402.93zM408.202 121.3a.714.714 0 1 0 0 1.43h3.12a.714.714 0 0 0 0-1.43h-3.12z" mask="url(#f)"/>
            <path fill="#C2F5E5" d="M364.711 122.184c.001-.057.008-.119.008-.177 0-1.758-1.565-3.18-3.497-3.18h-1.311c-.532-1.938-2.68-3.39-5.25-3.39h-2.187c-2.57 0-4.715 1.452-5.246 3.39h-3.115c-1.933 0-3.5 1.422-3.5 3.18 0 .058.007.12.011.177-2.79.604-4.845 2.65-4.845 5.081 0 2.905 2.932 5.263 6.547 5.263h20.683c3.614 0 6.548-2.358 6.548-5.263 0-2.43-2.057-4.477-4.846-5.081" mask="url(#f)"/>
            <path fill="#48443E" d="M344.113 119.543c-1.537 0-2.787 1.105-2.787 2.464 0 .024.003.048.005.073l.043.673-.6.13c-2.522.545-4.283 2.348-4.283 4.382 0 2.508 2.617 4.548 5.834 4.548h20.684c3.218 0 5.836-2.04 5.836-4.548 0-2.033-1.762-3.837-4.284-4.382l-.571-.124.016-.752c0-1.359-1.249-2.464-2.784-2.464h-1.854l-.144-.526c-.455-1.659-2.374-2.863-4.562-2.863h-2.188c-2.187 0-4.105 1.204-4.56 2.863l-.144.526h-3.657zm18.896 13.7h-20.684c-4.002 0-7.258-2.682-7.258-5.978 0-2.554 1.97-4.81 4.855-5.642.208-1.968 2.009-3.51 4.191-3.51h2.608c.835-2.021 3.115-3.39 5.753-3.39h2.188c2.639 0 4.92 1.369 5.756 3.39h.804c2.18 0 3.98 1.542 4.188 3.509 2.888.831 4.86 3.088 4.86 5.643 0 3.296-3.258 5.979-7.261 5.979z" mask="url(#f)"/>
            <path fill="#FFF" d="M581.223 52.229V43.17h-89.785v9.058h1.92v71.773h-1.92v7.622h89.785v-7.622h-1.919V52.229z" mask="url(#f)"/>
            <path fill="#48443E" d="M522.758 125.23h28.57v-19.301h-28.57v19.3zm-1.424 1.43h31.418v-22.162h-31.418v22.162z" mask="url(#f)"/>
            <path fill="#48443E" d="M527.471 112.392h19.144v-3.378h-19.144v3.378zm-1.424 1.43h21.992v-6.238h-21.992v6.239zM527.471 122.25h19.144v-5.796h-19.144v5.795zm-1.424 1.43h21.992v-8.657h-21.992v8.656z" mask="url(#f)"/>
            <path fill="#48443E" d="M492.862 131.624h88.361v-4.938h-88.361v4.938zm1.95-6.35h84.462V52.16h-84.462v73.113zm85.886 0V50.747h-87.31v74.525h-1.95v7.763h91.21v-7.763h-1.95z" mask="url(#f)"/>
            <path fill="#48443E" d="M492.862 50.748h88.361v-6.363h-88.361v6.363zm-1.424 1.43h91.21v-9.224h-91.21v9.225zM555.563 67.707h18.074v-5.822h-18.074v5.822zm0-7.252h18.074v-2.32h-18.074v2.32zm-1.424 8.682h20.922V56.705H554.14v12.432zM528.754 67.707h18.073v-5.822h-18.073v5.822zm0-7.252h18.073v-2.32h-18.073v2.32zm-1.424 8.682h20.922V56.705H527.33v12.432zM501.946 67.707h18.072v-5.822h-18.072v5.822zm0-7.252h18.072v-2.32h-18.072v2.32zm-1.424 8.682h20.92V56.705h-20.92v12.432zM555.563 83.46h18.074v-6.029h-18.074v6.03zm0-7.46h18.074v-2.112h-18.074v2.113zm-1.424 8.891h20.922V72.458H554.14v12.433zM528.754 83.46h18.073v-6.029h-18.073v6.03zm0-7.46h18.073v-2.112h-18.073v2.113zm-1.424 8.891h20.922V72.458H527.33v12.433zM501.946 83.46h18.072v-6.029h-18.072v6.03zm0-7.46h18.072v-2.112h-18.072v2.113zm-1.424 8.891h20.92V72.458h-20.92v12.433zM555.563 99.214h18.074v-5.987h-18.074v5.987zm0-7.418h18.074v-2.154h-18.074v2.154zm-1.424 8.849h20.922V88.212H554.14v12.433zM528.754 99.214h18.073v-5.987h-18.073v5.987zm0-7.418h18.073v-2.154h-18.073v2.154zm-1.424 8.849h20.922V88.212H527.33v12.433zM501.946 99.214h18.072v-5.987h-18.072v5.987zm0-7.418h18.072v-2.154h-18.072v2.154zm-1.424 8.849h20.92V88.212h-20.92v12.433z" mask="url(#f)"/>
            <path fill="#FFF" d="M446.454 80.946v49.974h49.497V80.946" mask="url(#f)"/>
            <path fill="#48443E" d="M496.663 132.438H445.74v-50.69h1.425v49.26h48.072v-49.26h1.425z" mask="url(#f)"/>
            <path fill="#FFF" d="M482.83 127.685h8.674V85.75h-8.673z" mask="url(#f)"/>
            <path fill="#48443E" d="M483.543 126.97h7.249V86.465h-7.249v40.503zm-1.424 1.43h10.097V85.035h-10.097V128.4zM468.875 94.05h8.575v-8.553h-8.575v8.553zm-1.424 1.43h11.423V84.066h-11.423V95.48zM453.31 94.05h8.576v-8.552h-8.575v8.552zm-1.424 1.43h11.424V84.066h-11.424V95.48zM468.875 108.593h8.575v-8.553h-8.575v8.553zm-1.424 1.43h11.423V98.609h-11.423v11.414zM453.31 108.593h8.576v-8.553h-8.575v8.553zm-1.424 1.43h11.424V98.609h-11.424v11.414zM468.875 123.135h8.575v-8.552h-8.575v8.552zm-1.424 1.43h11.423v-11.413h-11.423v11.413zM453.31 123.135h8.576v-8.552h-8.575v8.552zm-1.424 1.43h11.424v-11.413h-11.424v11.413zM452.598 129.236h25.564v-1.43h-25.564z" mask="url(#f)"/>
            <path fill="#FFF" d="M444.243 81.647h53.917v-3.772h-53.917z" mask="url(#f)"/>
            <path fill="#48443E" d="M444.955 80.932h52.493v-2.34h-52.493v2.34zm-1.424 1.431h55.341V77.16h-55.341v5.203z" mask="url(#f)"/>
            <path fill="#FCBD5F" d="M315.448 80.749c-2.494 0-4.523-2.037-4.523-4.542 0-.4.057-.786.154-1.156h8.736c.097.37.154.756.154 1.156 0 2.505-2.028 4.542-4.521 4.542M343.699 80.749c-2.494 0-4.523-2.037-4.523-4.542 0-.4.057-.786.153-1.156h8.737c.097.37.154.756.154 1.156 0 2.505-2.028 4.542-4.521 4.542" mask="url(#f)"/>
        </g>
    </g>
</svg>
